<svg width="30" height="30" viewBox="0 0 30 30" fill="none" xmlns="http://www.w3.org/2000/svg">
<path d="M24.4129 6.91291C24.779 6.5468 24.779 5.9532 24.4129 5.58709C24.0468 5.22097 23.4532 5.22097 23.0871 5.58709L15 13.6742L6.91291 5.58709C6.5468 5.22097 5.9532 5.22097 5.58709 5.58709C5.22097 5.9532 5.22097 6.5468 5.58709 6.91291L13.6742 15L5.58709 23.0871C5.22097 23.4532 5.22097 24.0468 5.58709 24.4129C5.9532 24.779 6.5468 24.779 6.91291 24.4129L15 16.3258L23.0871 24.4129C23.4532 24.779 24.0468 24.779 24.4129 24.4129C24.779 24.0468 24.779 23.4532 24.4129 23.0871L16.3258 15L24.4129 6.91291Z" fill="#C9C9C9"/>
</svg>
