<svg width="264" height="75" viewBox="0 0 264 75" fill="none" xmlns="http://www.w3.org/2000/svg">
<g filter="url(#filter0_di_481:3183)">
<rect x="12" y="7" width="240" height="51" rx="25.5" fill="white"/>
</g>
<path d="M88.524 39.144C87.264 39.144 86.124 38.868 85.104 38.316C84.096 37.752 83.304 36.984 82.728 36.012C82.152 35.028 81.864 33.924 81.864 32.7C81.864 31.476 82.152 30.378 82.728 29.406C83.304 28.422 84.102 27.654 85.122 27.102C86.142 26.538 87.282 26.256 88.542 26.256C89.526 26.256 90.426 26.424 91.242 26.76C92.058 27.084 92.754 27.57 93.33 28.218L92.16 29.352C91.212 28.356 90.03 27.858 88.614 27.858C87.678 27.858 86.832 28.068 86.076 28.488C85.32 28.908 84.726 29.49 84.294 30.234C83.874 30.966 83.664 31.788 83.664 32.7C83.664 33.612 83.874 34.44 84.294 35.184C84.726 35.916 85.32 36.492 86.076 36.912C86.832 37.332 87.678 37.542 88.614 37.542C90.018 37.542 91.2 37.038 92.16 36.03L93.33 37.164C92.754 37.812 92.052 38.304 91.224 38.64C90.408 38.976 89.508 39.144 88.524 39.144ZM97.3018 31.062C97.6018 30.51 98.0458 30.09 98.6338 29.802C99.2218 29.514 99.9358 29.37 100.776 29.37V31.044C100.68 31.032 100.548 31.026 100.38 31.026C99.4438 31.026 98.7058 31.308 98.1658 31.872C97.6378 32.424 97.3738 33.216 97.3738 34.248V39H95.6458V29.46H97.3018V31.062ZM111.44 34.284C111.44 34.416 111.428 34.59 111.404 34.806H103.664C103.772 35.646 104.138 36.324 104.762 36.84C105.398 37.344 106.184 37.596 107.12 37.596C108.26 37.596 109.178 37.212 109.874 36.444L110.828 37.56C110.396 38.064 109.856 38.448 109.208 38.712C108.572 38.976 107.858 39.108 107.066 39.108C106.058 39.108 105.164 38.904 104.384 38.496C103.604 38.076 102.998 37.494 102.566 36.75C102.146 36.006 101.936 35.166 101.936 34.23C101.936 33.306 102.14 32.472 102.548 31.728C102.968 30.984 103.538 30.408 104.258 30C104.99 29.58 105.812 29.37 106.724 29.37C107.636 29.37 108.446 29.58 109.154 30C109.874 30.408 110.432 30.984 110.828 31.728C111.236 32.472 111.44 33.324 111.44 34.284ZM106.724 30.828C105.896 30.828 105.2 31.08 104.636 31.584C104.084 32.088 103.76 32.748 103.664 33.564H109.784C109.688 32.76 109.358 32.106 108.794 31.602C108.242 31.086 107.552 30.828 106.724 30.828ZM117.05 29.37C118.37 29.37 119.378 29.694 120.074 30.342C120.782 30.99 121.136 31.956 121.136 33.24V39H119.498V37.74C119.21 38.184 118.796 38.526 118.256 38.766C117.728 38.994 117.098 39.108 116.366 39.108C115.298 39.108 114.44 38.85 113.792 38.334C113.156 37.818 112.838 37.14 112.838 36.3C112.838 35.46 113.144 34.788 113.756 34.284C114.368 33.768 115.34 33.51 116.672 33.51H119.408V33.168C119.408 32.424 119.192 31.854 118.76 31.458C118.328 31.062 117.692 30.864 116.852 30.864C116.288 30.864 115.736 30.96 115.196 31.152C114.656 31.332 114.2 31.578 113.828 31.89L113.108 30.594C113.6 30.198 114.188 29.898 114.872 29.694C115.556 29.478 116.282 29.37 117.05 29.37ZM116.654 37.776C117.314 37.776 117.884 37.632 118.364 37.344C118.844 37.044 119.192 36.624 119.408 36.084V34.752H116.744C115.28 34.752 114.548 35.244 114.548 36.228C114.548 36.708 114.734 37.086 115.106 37.362C115.478 37.638 115.994 37.776 116.654 37.776ZM129.697 38.442C129.445 38.658 129.133 38.826 128.761 38.946C128.389 39.054 128.005 39.108 127.609 39.108C126.649 39.108 125.905 38.85 125.377 38.334C124.849 37.818 124.585 37.08 124.585 36.12V30.882H122.965V29.46H124.585V27.372H126.313V29.46H129.049V30.882H126.313V36.048C126.313 36.564 126.439 36.96 126.691 37.236C126.955 37.512 127.327 37.65 127.807 37.65C128.335 37.65 128.785 37.5 129.157 37.2L129.697 38.442ZM140.092 34.284C140.092 34.416 140.08 34.59 140.056 34.806H132.316C132.424 35.646 132.79 36.324 133.414 36.84C134.05 37.344 134.836 37.596 135.772 37.596C136.912 37.596 137.83 37.212 138.526 36.444L139.48 37.56C139.048 38.064 138.508 38.448 137.86 38.712C137.224 38.976 136.51 39.108 135.718 39.108C134.71 39.108 133.816 38.904 133.036 38.496C132.256 38.076 131.65 37.494 131.218 36.75C130.798 36.006 130.588 35.166 130.588 34.23C130.588 33.306 130.792 32.472 131.2 31.728C131.62 30.984 132.19 30.408 132.91 30C133.642 29.58 134.464 29.37 135.376 29.37C136.288 29.37 137.098 29.58 137.806 30C138.526 30.408 139.084 30.984 139.48 31.728C139.888 32.472 140.092 33.324 140.092 34.284ZM135.376 30.828C134.548 30.828 133.852 31.08 133.288 31.584C132.736 32.088 132.412 32.748 132.316 33.564H138.436C138.34 32.76 138.01 32.106 137.446 31.602C136.894 31.086 136.204 30.828 135.376 30.828ZM158.414 26.4V39H156.938L149.378 29.604V39H147.578V26.4H149.054L156.614 35.796V26.4H158.414ZM163.985 27.966V32.358H170.303V33.906H163.985V39H162.185V26.4H171.077V27.966H163.985ZM176.201 27.966H171.881V26.4H182.303V27.966H177.983V39H176.201V27.966Z" fill="url(#paint0_linear_481:3183)"/>
<defs>
<filter id="filter0_di_481:3183" x="0" y="0" width="264" height="75" filterUnits="userSpaceOnUse" color-interpolation-filters="sRGB">
<feFlood flood-opacity="0" result="BackgroundImageFix"/>
<feColorMatrix in="SourceAlpha" type="matrix" values="0 0 0 0 0 0 0 0 0 0 0 0 0 0 0 0 0 0 127 0" result="hardAlpha"/>
<feOffset dy="5"/>
<feGaussianBlur stdDeviation="6"/>
<feComposite in2="hardAlpha" operator="out"/>
<feColorMatrix type="matrix" values="0 0 0 0 0.215686 0 0 0 0 0.333333 0 0 0 0 0.945098 0 0 0 0.2 0"/>
<feBlend mode="normal" in2="BackgroundImageFix" result="effect1_dropShadow_481:3183"/>
<feBlend mode="normal" in="SourceGraphic" in2="effect1_dropShadow_481:3183" result="shape"/>
<feColorMatrix in="SourceAlpha" type="matrix" values="0 0 0 0 0 0 0 0 0 0 0 0 0 0 0 0 0 0 127 0" result="hardAlpha"/>
<feOffset dy="5"/>
<feGaussianBlur stdDeviation="2.5"/>
<feComposite in2="hardAlpha" operator="arithmetic" k2="-1" k3="1"/>
<feColorMatrix type="matrix" values="0 0 0 0 0.215686 0 0 0 0 0.333333 0 0 0 0 0.945098 0 0 0 0.2 0"/>
<feBlend mode="normal" in2="shape" result="effect2_innerShadow_481:3183"/>
</filter>
<linearGradient id="paint0_linear_481:3183" x1="81" y1="33.2157" x2="183" y2="33.2157" gradientUnits="userSpaceOnUse">
<stop stop-color="#00C2E7"/>
<stop offset="1" stop-color="#6300F9"/>
</linearGradient>
</defs>
</svg>
