<svg width="40" height="40" viewBox="0 0 40 40" fill="none" xmlns="http://www.w3.org/2000/svg">
<mask id="mask0_481:3125" style="mask-type:alpha" maskUnits="userSpaceOnUse" x="0" y="0" width="40" height="40">
<path d="M20 40C31.0457 40 40 31.0457 40 20C40 8.95431 31.0457 0 20 0C8.95431 0 0 8.95431 0 20C0 31.0457 8.95431 40 20 40Z" fill="#C9C9C9"/>
</mask>
<g mask="url(#mask0_481:3125)">
<path d="M15.7761 19.1357C14.4081 19.1357 13.3281 20.3357 13.3281 21.7997C13.3281 23.2637 14.4321 24.4637 15.7761 24.4637C17.1441 24.4637 18.2241 23.2637 18.2241 21.7997C18.2481 20.3357 17.1441 19.1357 15.7761 19.1357ZM24.5361 19.1357C23.1681 19.1357 22.0881 20.3357 22.0881 21.7997C22.0881 23.2637 23.1921 24.4637 24.5361 24.4637C25.9041 24.4637 26.9841 23.2637 26.9841 21.7997C26.9841 20.3357 25.9041 19.1357 24.5361 19.1357Z" fill="#C9C9C9"/>
<path d="M36.2001 -1H4.04012C1.32812 -1 -0.879883 1.208 -0.879883 3.944V36.392C-0.879883 39.128 1.32812 41.336 4.04012 41.336H31.2561L29.9841 36.896L33.0561 39.752L35.9601 42.44L41.1201 47V3.944C41.1201 1.208 38.9121 -1 36.2001 -1ZM26.9361 30.344C26.9361 30.344 26.0721 29.312 25.3521 28.4C28.4961 27.512 29.6961 25.544 29.6961 25.544C28.7121 26.192 27.7761 26.648 26.9361 26.96C25.7361 27.464 24.5841 27.8 23.4561 27.992C21.1521 28.424 19.0401 28.304 17.2401 27.968C15.8721 27.704 14.6961 27.32 13.7121 26.936C13.1601 26.72 12.5601 26.456 11.9601 26.12C11.8881 26.072 11.8161 26.048 11.7441 26C11.6961 25.976 11.6721 25.952 11.6481 25.928C11.2161 25.688 10.9761 25.52 10.9761 25.52C10.9761 25.52 12.1281 27.44 15.1761 28.352C14.4561 29.264 13.5681 30.344 13.5681 30.344C8.26412 30.176 6.24812 26.696 6.24812 26.696C6.24812 18.968 9.70412 12.704 9.70412 12.704C13.1601 10.112 16.4481 10.184 16.4481 10.184L16.6881 10.472C12.3681 11.72 10.3761 13.616 10.3761 13.616C10.3761 13.616 10.9041 13.328 11.7921 12.92C14.3601 11.792 16.4001 11.48 17.2401 11.408C17.3841 11.384 17.5041 11.36 17.6481 11.36C19.1121 11.168 20.7681 11.12 22.4961 11.312C24.7761 11.576 27.2241 12.248 29.7201 13.616C29.7201 13.616 27.8241 11.816 23.7441 10.568L24.0801 10.184C24.0801 10.184 27.3681 10.112 30.8241 12.704C30.8241 12.704 34.2801 18.968 34.2801 26.696C34.2801 26.696 32.2401 30.176 26.9361 30.344V30.344Z" fill="#C9C9C9"/>
<rect x="26" y="33" width="10" height="8" fill="#C9C9C9"/>
</g>
</svg>
