<svg width="40" height="40" viewBox="0 0 40 40" fill="none" xmlns="http://www.w3.org/2000/svg">
<mask id="mask0_66:549" style="mask-type:alpha" maskUnits="userSpaceOnUse" x="0" y="0" width="40" height="40">
<path d="M20 40C31.0457 40 40 31.0457 40 20C40 8.95431 31.0457 0 20 0C8.95431 0 0 8.95431 0 20C0 31.0457 8.95431 40 20 40Z" fill="#C9C9C9"/>
</mask>
<g mask="url(#mask0_66:549)">
<path d="M15.776 19.136C14.408 19.136 13.328 20.336 13.328 21.8C13.328 23.264 14.432 24.464 15.776 24.464C17.144 24.464 18.224 23.264 18.224 21.8C18.248 20.336 17.144 19.136 15.776 19.136ZM24.536 19.136C23.168 19.136 22.088 20.336 22.088 21.8C22.088 23.264 23.192 24.464 24.536 24.464C25.904 24.464 26.984 23.264 26.984 21.8C26.984 20.336 25.904 19.136 24.536 19.136Z" fill="#3755F1"/>
<path d="M36.2 -1H4.04C1.328 -1 -0.880005 1.208 -0.880005 3.944V36.392C-0.880005 39.128 1.328 41.336 4.04 41.336H31.256L29.984 36.896L33.056 39.752L35.96 42.44L41.12 47V3.944C41.12 1.208 38.912 -1 36.2 -1ZM26.936 30.344C26.936 30.344 26.072 29.312 25.352 28.4C28.496 27.512 29.696 25.544 29.696 25.544C28.712 26.192 27.776 26.648 26.936 26.96C25.736 27.464 24.584 27.8 23.456 27.992C21.152 28.424 19.04 28.304 17.24 27.968C15.872 27.704 14.696 27.32 13.712 26.936C13.16 26.72 12.56 26.456 11.96 26.12C11.888 26.072 11.816 26.048 11.744 26C11.696 25.976 11.672 25.952 11.648 25.928C11.216 25.688 10.976 25.52 10.976 25.52C10.976 25.52 12.128 27.44 15.176 28.352C14.456 29.264 13.568 30.344 13.568 30.344C8.26399 30.176 6.24799 26.696 6.24799 26.696C6.24799 18.968 9.70399 12.704 9.70399 12.704C13.16 10.112 16.448 10.184 16.448 10.184L16.688 10.472C12.368 11.72 10.376 13.616 10.376 13.616C10.376 13.616 10.904 13.328 11.792 12.92C14.36 11.792 16.4 11.48 17.24 11.408C17.384 11.384 17.504 11.36 17.648 11.36C19.112 11.168 20.768 11.12 22.496 11.312C24.776 11.576 27.224 12.248 29.72 13.616C29.72 13.616 27.824 11.816 23.744 10.568L24.08 10.184C24.08 10.184 27.368 10.112 30.824 12.704C30.824 12.704 34.28 18.968 34.28 26.696C34.28 26.696 32.24 30.176 26.936 30.344Z" fill="#3755F1"/>
<rect x="26" y="33" width="10" height="8" fill="#3755F1"/>
</g>
</svg>
