<svg width="40" height="40" viewBox="0 0 40 40" fill="none" xmlns="http://www.w3.org/2000/svg">
<circle cx="20" cy="20" r="20" fill="#3755F1"/>
<rect x="10" y="9.27344" width="20.625" height="20.625" fill="white"/>
<path d="M7.42083 6.89379C7.83712 6.86874 8.25454 6.86874 8.67083 6.89379H32.2271C32.3478 6.87779 32.4706 6.88911 32.5864 6.92697C32.7021 6.96484 32.8079 7.02827 32.8958 7.11252C33.2083 7.43127 33.0958 7.90629 33.1146 8.30629C33.1146 16.323 33.1146 24.3438 33.1146 32.3688C33.1121 32.4789 33.0864 32.5871 33.0391 32.6866C32.9918 32.786 32.924 32.8742 32.8402 32.9456C32.7564 33.0171 32.6585 33.07 32.5528 33.1009C32.4472 33.1318 32.3362 33.14 32.2271 33.125H7.63958C7.53882 33.1294 7.43823 33.1129 7.34416 33.0765C7.25009 33.0401 7.16456 32.9846 7.09294 32.9136C7.02133 32.8426 6.96518 32.7575 6.92804 32.6637C6.89089 32.57 6.87354 32.4696 6.87708 32.3688V7.65627C6.86418 7.48563 6.91152 7.31586 7.01088 7.17653C7.11023 7.03721 7.2553 6.93718 7.42083 6.89379V6.89379ZM12.8021 13.4187C12.8021 17.7937 12.8021 22.1687 12.8021 26.5437H17.7271C17.7271 24.375 17.6958 22.1687 17.7271 20.0312C18.2646 20.7812 18.7583 21.5687 19.3083 22.3125C20.2271 23.7375 21.2646 25.0812 22.1458 26.5312C23.7958 26.575 25.4458 26.5312 27.1021 26.5312C27.1021 26.325 27.1333 26.1187 27.1333 25.9062C27.1333 21.7312 27.1333 17.55 27.1333 13.4062C25.4958 13.4062 23.8646 13.4062 22.2333 13.4062C22.2333 15.5875 22.2333 17.7812 22.2333 19.95C20.7146 17.7937 19.2833 15.575 17.7271 13.4375C16.0896 13.3688 14.4271 13.4187 12.8021 13.4187V13.4187Z" fill="#3755F1"/>
<path d="M10.0291 8.125H29.9766C30.4801 8.125 30.9629 8.32502 31.319 8.68104C31.675 9.03706 31.875 9.51993 31.875 10.0234V29.9709C31.875 30.221 31.8257 30.4686 31.7301 30.6996C31.6344 30.9306 31.4941 31.1405 31.3173 31.3173C31.1405 31.4941 30.9306 31.6344 30.6996 31.73C30.4686 31.8257 30.221 31.875 29.9709 31.875H10.0291C9.77901 31.875 9.53142 31.8257 9.3004 31.73C9.06939 31.6344 8.85949 31.4941 8.68268 31.3173C8.50588 31.1405 8.36562 30.9306 8.26994 30.6996C8.17425 30.4686 8.125 30.221 8.125 29.9709V10.0234C8.12649 9.51941 8.32775 9.03656 8.68467 8.6807C9.04159 8.32483 9.52504 8.125 10.0291 8.125V8.125Z" fill="#3755F1"/>
<path d="M20.0579 9.65234C13.8355 9.65234 8.81738 13.6668 8.81738 18.5403C8.81738 21.7037 10.9049 24.4737 14.0362 26.0554L12.9764 30.0137C12.9564 30.073 12.9533 30.1367 12.9675 30.1977C12.9817 30.2586 13.0125 30.3145 13.0567 30.3589C13.121 30.4156 13.2037 30.447 13.2895 30.4472C13.3606 30.4415 13.4281 30.4134 13.4822 30.3669L18.0426 27.2919C18.7158 27.3848 19.3944 27.433 20.0739 27.4363C26.2883 27.4363 31.3144 23.4219 31.3144 18.5403C31.3144 13.6587 26.2723 9.65234 20.0579 9.65234Z" fill="white"/>
<path d="M12.7511 17.1357H11.5226C11.3704 17.1401 11.22 17.1011 11.0891 17.0233C11.0309 16.9869 10.981 16.9388 10.9423 16.8822C10.9036 16.8255 10.877 16.7615 10.8643 16.6941C10.8604 16.6514 10.8604 16.6084 10.8643 16.5657C10.8604 16.4857 10.876 16.406 10.9095 16.3333C10.943 16.2606 10.9936 16.1971 11.0569 16.1482C11.1969 16.0468 11.3659 15.9933 11.5387 15.9956H15.24C15.3935 15.9902 15.5449 16.0323 15.6736 16.116C15.7331 16.1508 15.7841 16.1985 15.823 16.2554C15.8619 16.3123 15.8876 16.3772 15.8984 16.4452C15.9023 16.4853 15.9023 16.5256 15.8984 16.5657C15.9022 16.6468 15.8867 16.7276 15.8532 16.8016C15.8197 16.8756 15.7692 16.9405 15.7057 16.9912C15.5691 17.0924 15.4018 17.1435 15.232 17.1357H14.0437V21.3589C14.0485 21.4489 14.0346 21.5389 14.0028 21.6232C13.971 21.7075 13.9221 21.7843 13.859 21.8487C13.7986 21.9103 13.7259 21.9585 13.6457 21.9903C13.5655 22.0221 13.4796 22.0368 13.3934 22.0333C13.2426 22.0376 13.095 21.9895 12.9759 21.8969C12.8624 21.8065 12.7855 21.6782 12.7591 21.5356C12.7511 21.4769 12.7511 21.4176 12.7591 21.3589L12.7511 17.1357Z" fill="#3755F1"/>
<path d="M16.2529 16.3089C16.2883 16.1768 16.3712 16.0624 16.4858 15.9877C16.6079 15.9185 16.747 15.8851 16.8872 15.8914H17.1923C17.3411 15.886 17.4884 15.9222 17.6179 15.9957C17.755 16.088 17.8525 16.2284 17.8908 16.3892L19.4966 20.9255C19.5383 21.0439 19.5731 21.1646 19.601 21.2869C19.6037 21.3377 19.6037 21.3886 19.601 21.4394C19.6037 21.5176 19.5893 21.5955 19.5588 21.6676C19.5283 21.7398 19.4824 21.8044 19.4244 21.8569C19.3681 21.9146 19.3006 21.96 19.226 21.9904C19.1514 22.0208 19.0713 22.0354 18.9908 22.0335C18.867 22.0458 18.7426 22.0161 18.6377 21.9491C18.5329 21.8821 18.4536 21.7818 18.4127 21.6642L18.0755 20.6767H15.9639L15.6267 21.6642C15.5868 21.7841 15.5066 21.8864 15.3997 21.9537C15.2928 22.0211 15.1659 22.0493 15.0406 22.0335C14.9048 22.0371 14.7718 21.9946 14.6632 21.9131C14.5574 21.8289 14.486 21.709 14.4625 21.5759C14.4582 21.5305 14.4582 21.4848 14.4625 21.4394C14.4487 21.3597 14.4487 21.2783 14.4625 21.1986C14.4625 21.1103 14.5187 21.0138 14.5508 20.9255L16.2529 16.3089ZM17.0558 17.3607L16.2931 19.7694H17.8105L17.0558 17.3607Z" fill="#3755F1"/>
<path d="M19.7849 16.5658C19.7767 16.3856 19.8402 16.2095 19.9615 16.076C20.0232 16.0139 20.0972 15.9652 20.1788 15.9334C20.2604 15.9016 20.3477 15.8872 20.4352 15.8913C20.5856 15.8895 20.7324 15.9376 20.8527 16.0278C20.9642 16.122 21.0383 16.253 21.0615 16.3971C21.0694 16.453 21.0694 16.5099 21.0615 16.5658V20.789H23.2694C23.4225 20.787 23.5729 20.8287 23.703 20.9094C23.7614 20.9454 23.8117 20.9934 23.8504 21.0501C23.8891 21.1068 23.9155 21.171 23.9278 21.2386C23.9278 21.2386 23.9278 21.3189 23.9278 21.359C23.9316 21.439 23.9161 21.5186 23.8826 21.5913C23.849 21.664 23.7984 21.7276 23.7351 21.7766C23.5951 21.8779 23.4262 21.9314 23.2534 21.9291H20.5396C20.3668 21.9402 20.195 21.8952 20.0498 21.8007C19.92 21.7036 19.8335 21.5594 19.809 21.3992C19.8031 21.311 19.8031 21.2224 19.809 21.1342L19.7849 16.5658Z" fill="#3755F1"/>
<path d="M24.0727 16.5652C24.0679 16.3856 24.1309 16.2107 24.2493 16.0755C24.3696 15.9661 24.524 15.9016 24.6864 15.8928C24.8487 15.884 25.0091 15.9315 25.1405 16.0273C25.2545 16.1206 25.3314 16.2515 25.3573 16.3965C25.3613 16.4527 25.3613 16.5091 25.3573 16.5652V18.5323L27.3886 16.1878C27.4669 16.1078 27.55 16.0328 27.6375 15.9631C27.72 15.9139 27.8145 15.8888 27.9105 15.8907C28.0508 15.89 28.1881 15.932 28.3039 16.0112C28.3585 16.0479 28.4051 16.0954 28.441 16.1505C28.4769 16.2057 28.5012 16.2675 28.5127 16.3324C28.5159 16.3482 28.5159 16.3647 28.5127 16.3806C28.5088 16.3991 28.5088 16.4182 28.5127 16.4367C28.5124 16.5212 28.4903 16.6042 28.4484 16.6776C28.4058 16.7554 28.3547 16.828 28.2959 16.8943L26.9631 18.3557L28.5689 20.8446V20.9249C28.6522 21.0399 28.7172 21.1673 28.7616 21.3023V21.3424C28.7709 21.4354 28.7574 21.5293 28.7225 21.616C28.6875 21.7027 28.6321 21.7796 28.5608 21.8402C28.4269 21.9414 28.263 21.9951 28.0952 21.9928C27.9836 21.9974 27.8728 21.9724 27.774 21.9205C27.6671 21.8487 27.579 21.7524 27.5171 21.6395L26.0237 19.2308L25.3091 19.9775V21.3183C25.3139 21.4979 25.2509 21.6728 25.1325 21.808C25.069 21.8701 24.9936 21.9185 24.9107 21.9503C24.8279 21.982 24.7394 21.9965 24.6508 21.9928C24.5026 21.9959 24.3579 21.9476 24.2413 21.8563C24.1279 21.7659 24.0509 21.6376 24.0245 21.495C24.0166 21.4364 24.0166 21.3769 24.0245 21.3183L24.0727 16.5652Z" fill="#3755F1"/>
</svg>
