<svg width="199" height="37" viewBox="0 0 199 37" fill="none" xmlns="http://www.w3.org/2000/svg">
<path d="M63.3261 20H72.1581V17.072H67.1021V8.8H63.3261V20ZM83.3413 20H87.2453L82.3493 8.8H78.6373L73.7413 20H77.5813L78.3333 18.048H82.5893L83.3413 20ZM79.3733 15.328L80.4613 12.512L81.5493 15.328H79.3733ZM98.4079 14.144C99.4319 13.632 99.9599 12.768 99.9599 11.728C99.9599 10.032 98.5199 8.8 95.4319 8.8H89.4479V20H95.7519C98.8399 20 100.488 18.864 100.488 16.912C100.488 15.584 99.7199 14.624 98.4079 14.144ZM94.9199 11.44C95.7679 11.44 96.1519 11.728 96.1519 12.272C96.1519 12.816 95.7679 13.104 94.9199 13.104H93.1599V11.44H94.9199ZM95.4319 17.36H93.1599V15.6H95.4319C96.2639 15.6 96.6799 15.904 96.6799 16.48C96.6799 17.056 96.2639 17.36 95.4319 17.36ZM107.135 17.152V15.68H111.871V12.96H107.135V11.648H112.527V8.8H103.423V20H112.735V17.152H107.135ZM115.789 20H124.621V17.072H119.565V8.8H115.789V20Z" fill="#08132A"/>
<path d="M11.9473 13.5365C11.9473 13.5365 11.9473 13.4986 11.9645 13.4779C11.9817 13.4573 11.9645 13.4779 11.9645 13.4779" fill="#231815"/>
<path d="M18.1924 7.64198L17.4984 8.33137L16.4158 9.36545L12.2518 13.0985L12.1373 13.195C11.4434 13.843 11.4434 14.7048 11.8112 15.7596C12.4496 17.5933 15.1145 23.3808 14.8855 25.0077C14.8037 25.382 14.6214 25.7272 14.3582 26.007C14.0949 26.2867 13.7604 26.4905 13.39 26.5968C12.9674 26.7304 12.5219 26.7773 12.0804 26.7347C11.639 26.692 11.211 26.5607 10.8222 26.3486L10.6106 26.2314C10.5516 26.19 10.4961 26.1487 10.4405 26.1142C10.2216 25.9622 10.0202 25.7864 9.84024 25.5903L0.995378 14.6083C-0.545273 12.1609 -0.441175 9.59295 2.41111 7.09391L6.95673 2.69904C9.16707 0.865262 12.2449 1.13412 13.8341 2.84726L18.1924 7.64198Z" fill="#74C9EB"/>
<path d="M21.9854 19.5613L16.8047 25.6382C15.3543 27.1618 12.6408 27.3962 10.8018 26.3518C11.1905 26.5638 11.6186 26.6952 12.06 26.7379C12.5014 26.7805 12.9469 26.7336 13.3695 26.5999C13.7399 26.4937 14.0744 26.2899 14.3377 26.0101C14.601 25.7304 14.7832 25.3851 14.8651 25.0109C15.0941 23.3839 12.4361 17.5965 11.7907 15.7627C11.4125 14.708 11.4437 13.8462 12.1169 13.1982L12.2314 13.1017C12.4656 12.912 12.7325 12.7661 13.019 12.6708C13.5834 12.4882 14.187 12.4603 14.7659 12.5901C15.3449 12.72 15.8779 13.0027 16.3085 13.4085L21.9854 19.5613Z" fill="url(#paint0_linear_510:573)"/>
<path d="M32.3118 22.3161C32.2862 22.6731 32.3131 23.0319 32.3916 23.3812C32.4401 23.6259 32.5789 24.1843 32.5789 24.1843C32.7039 25.3184 31.7774 26.2042 30.955 26.4834C30.399 26.6885 29.7951 26.7293 29.2163 26.6009C28.6375 26.4724 28.1085 26.1802 27.6933 25.7596L21.9852 19.555L16.3223 13.416C15.8916 13.0103 15.3587 12.7275 14.7797 12.5977C14.2007 12.4679 13.5972 12.4957 13.0328 12.6784C12.7462 12.7736 12.4794 12.9196 12.2451 13.1092L16.409 9.37619L17.4917 8.3421L18.1856 7.65271L23.2691 2.75114C25.0526 1.02766 28.7065 1.08626 30.9481 3.91276L39.7374 15.0809L33.0613 20.889C32.8467 21.065 32.6698 21.282 32.541 21.5271C32.4123 21.7722 32.3343 22.0405 32.3118 22.3161V22.3161Z" fill="url(#paint1_linear_510:573)"/>
<path d="M42.9229 17.4484L34.7998 25.3316C32.9087 27.1206 29.2271 27.4204 27.6934 25.759C28.1061 26.1834 28.6352 26.4782 29.2149 26.6069C29.7947 26.7355 30.3998 26.6924 30.9551 26.4829C32.3986 25.9658 32.4159 24.4147 31.8434 22.6602C31.1043 20.5058 31.9163 19.7199 32.3257 19.3684L39.0123 13.574L41.0006 11.8505C42.5204 10.5131 43.8043 11.0784 44.0957 12.733C44.4115 14.5495 43.9916 16.3661 42.9229 17.4484Z" fill="#015096"/>
<path d="M46.2577 7.43853C48.3255 7.43853 50.0018 5.77336 50.0018 3.71926C50.0018 1.66517 48.3255 0 46.2577 0C44.1899 0 42.5137 1.66517 42.5137 3.71926C42.5137 5.77336 44.1899 7.43853 46.2577 7.43853Z" fill="url(#paint2_linear_510:573)"/>
<defs>
<linearGradient id="paint0_linear_510:573" x1="16.4022" y1="26.9963" x2="16.4022" y2="12.5157" gradientUnits="userSpaceOnUse">
<stop stop-color="#00A2E1"/>
<stop offset="1" stop-color="#00608D"/>
</linearGradient>
<linearGradient id="paint1_linear_510:573" x1="20.5799" y1="7.29078" x2="34.1574" y2="23.8283" gradientUnits="userSpaceOnUse">
<stop stop-color="#31BCEE"/>
<stop offset="1" stop-color="#0061AE"/>
</linearGradient>
<linearGradient id="paint2_linear_510:573" x1="44.5089" y1="1.1892" x2="48.288" y2="6.73465" gradientUnits="userSpaceOnUse">
<stop stop-color="#74C9EB"/>
<stop offset="1" stop-color="#0061AE"/>
</linearGradient>
</defs>
</svg>
