<svg width="30" height="30" viewBox="0 0 30 30" fill="none" xmlns="http://www.w3.org/2000/svg">
<path d="M6.86013 10.5382C6.46702 10.2012 5.87517 10.2468 5.53821 10.6399C5.20126 11.033 5.24678 11.6248 5.6399 11.9618L10.8703 16.445C11.8861 17.3165 12.5838 17.9151 13.3737 18.2073C14.4232 18.5955 15.5769 18.5955 16.6263 18.2073C17.4163 17.9151 18.114 17.3165 19.1298 16.4451L24.3601 11.9618C24.7533 11.6248 24.7988 11.033 24.4618 10.6399C24.1249 10.2468 23.533 10.2012 23.1399 10.5382L18.0506 14.9005C16.8374 15.9404 16.4092 16.2884 15.9758 16.4488C15.3461 16.6817 14.6539 16.6817 14.0242 16.4488C13.5909 16.2884 13.1627 15.9404 11.9494 14.9005L6.86013 10.5382Z" fill="#3755F1"/>
<path fill-rule="evenodd" clip-rule="evenodd" d="M21.9083 4.0625H8.09171C7.24631 4.06249 6.56436 4.06249 6.00935 4.10036C5.43865 4.13929 4.93402 4.22139 4.45617 4.41932C3.3076 4.89507 2.39507 5.8076 1.91932 6.95617C1.72139 7.43402 1.63929 7.93865 1.60036 8.50935C1.56249 9.06436 1.56249 9.7463 1.5625 10.5917V19.4083C1.56249 20.2537 1.56249 20.9356 1.60036 21.4907C1.63929 22.0613 1.72139 22.566 1.91932 23.0438C2.39507 24.1924 3.3076 25.1049 4.45617 25.5807C4.93402 25.7786 5.43865 25.8607 6.00935 25.8996C6.56436 25.9375 7.2463 25.9375 8.0917 25.9375H21.9083C22.7537 25.9375 23.4356 25.9375 23.9907 25.8996C24.5613 25.8607 25.066 25.7786 25.5438 25.5807C26.6924 25.1049 27.6049 24.1924 28.0807 23.0438C28.2786 22.566 28.3607 22.0613 28.3996 21.4907C28.4375 20.9356 28.4375 20.2537 28.4375 19.4083V10.5917C28.4375 9.7463 28.4375 9.06436 28.3996 8.50935C28.3607 7.93865 28.2786 7.43402 28.0807 6.95617C27.6049 5.8076 26.6924 4.89507 25.5438 4.41932C25.066 4.22139 24.5613 4.13929 23.9907 4.10036C23.4356 4.06249 22.7537 4.06249 21.9083 4.0625ZM5.1737 6.15159C5.385 6.06407 5.66175 6.00343 6.13698 5.97101C6.62063 5.93801 7.23853 5.9375 8.125 5.9375H21.875C22.7615 5.9375 23.3794 5.93801 23.863 5.97101C24.3382 6.00343 24.615 6.06407 24.8263 6.15159C25.5154 6.43704 26.063 6.98456 26.3484 7.6737C26.4359 7.885 26.4966 8.16175 26.529 8.63698C26.562 9.12063 26.5625 9.73853 26.5625 10.625V19.375C26.5625 20.2615 26.562 20.8794 26.529 21.363C26.4966 21.8382 26.4359 22.115 26.3484 22.3263C26.063 23.0154 25.5154 23.563 24.8263 23.8484C24.615 23.9359 24.3382 23.9966 23.863 24.029C23.3794 24.062 22.7615 24.0625 21.875 24.0625H8.125C7.23853 24.0625 6.62063 24.062 6.13698 24.029C5.66175 23.9966 5.385 23.9359 5.1737 23.8484C4.48456 23.563 3.93704 23.0154 3.65159 22.3263C3.56407 22.115 3.50343 21.8382 3.47101 21.363C3.43801 20.8794 3.4375 20.2615 3.4375 19.375V10.625C3.4375 9.73853 3.43801 9.12063 3.47101 8.63698C3.50343 8.16175 3.56407 7.885 3.65159 7.6737C3.93704 6.98456 4.48456 6.43704 5.1737 6.15159Z" fill="#3755F1"/>
</svg>
