<svg width="40" height="40" viewBox="0 0 40 40" fill="none" xmlns="http://www.w3.org/2000/svg">
<circle cx="20" cy="20" r="20" fill="#C9C9C9"/>
<g clip-path="url(#clip0_510:486)">
<path d="M14.7688 13C18.5072 13 21.5374 16.0514 21.5374 19.8153C21.5374 23.5792 18.5069 26.6303 14.7688 26.6303C11.0307 26.6303 8 23.5792 8 19.8153C8 16.0514 11.0305 13 14.7688 13ZM25.5782 13.3992C27.4474 13.3992 28.9626 16.2715 28.9626 19.8153H28.9628C28.9628 23.3582 27.4476 26.2314 25.5784 26.2314C23.7092 26.2314 22.194 23.3582 22.194 19.8153C22.194 16.2724 23.709 13.3992 25.5782 13.3992ZM30.8097 14.0675C31.4669 14.0675 32 16.6408 32 19.8153C32 22.9888 31.4672 25.5631 30.8097 25.5631C30.1522 25.5631 29.6196 22.9895 29.6196 19.8153C29.6196 16.6411 30.1524 14.0675 30.8097 14.0675Z" fill="white"/>
</g>
<defs>
<clipPath id="clip0_510:486">
<rect width="24" height="13.6875" fill="white" transform="translate(8 13)"/>
</clipPath>
</defs>
</svg>
