<svg width="48" height="48" viewBox="0 0 48 48" fill="none" xmlns="http://www.w3.org/2000/svg">
<g filter="url(#filter0_d_510:488)">
<circle cx="24" cy="20" r="20" fill="#3755F1"/>
<g clip-path="url(#clip0_510:488)">
<path d="M18.7688 13C22.5072 13 25.5374 16.0514 25.5374 19.8153C25.5374 23.5792 22.5069 26.6303 18.7688 26.6303C15.0307 26.6303 12 23.5792 12 19.8153C12 16.0514 15.0305 13 18.7688 13ZM29.5782 13.3992C31.4474 13.3992 32.9626 16.2715 32.9626 19.8153H32.9628C32.9628 23.3582 31.4476 26.2314 29.5784 26.2314C27.7092 26.2314 26.194 23.3582 26.194 19.8153C26.194 16.2724 27.709 13.3992 29.5782 13.3992ZM34.8097 14.0675C35.4669 14.0675 36 16.6408 36 19.8153C36 22.9888 35.4672 25.5631 34.8097 25.5631C34.1522 25.5631 33.6196 22.9895 33.6196 19.8153C33.6196 16.6411 34.1524 14.0675 34.8097 14.0675Z" fill="white"/>
</g>
</g>
<defs>
<filter id="filter0_d_510:488" x="0" y="0" width="48" height="48" filterUnits="userSpaceOnUse" color-interpolation-filters="sRGB">
<feFlood flood-opacity="0" result="BackgroundImageFix"/>
<feColorMatrix in="SourceAlpha" type="matrix" values="0 0 0 0 0 0 0 0 0 0 0 0 0 0 0 0 0 0 127 0" result="hardAlpha"/>
<feOffset dy="4"/>
<feGaussianBlur stdDeviation="2"/>
<feComposite in2="hardAlpha" operator="out"/>
<feColorMatrix type="matrix" values="0 0 0 0 0 0 0 0 0 0 0 0 0 0 0 0 0 0 0.25 0"/>
<feBlend mode="normal" in2="BackgroundImageFix" result="effect1_dropShadow_510:488"/>
<feBlend mode="normal" in="SourceGraphic" in2="effect1_dropShadow_510:488" result="shape"/>
</filter>
<clipPath id="clip0_510:488">
<rect width="24" height="13.6875" fill="white" transform="translate(12 13)"/>
</clipPath>
</defs>
</svg>
