<svg width="30" height="30" viewBox="0 0 30 30" fill="none" xmlns="http://www.w3.org/2000/svg">
<path fill-rule="evenodd" clip-rule="evenodd" d="M15 3.4375C12.066 3.4375 9.6875 5.81599 9.6875 8.75C9.6875 11.684 12.066 14.0625 15 14.0625C17.934 14.0625 20.3125 11.684 20.3125 8.75C20.3125 5.81599 17.934 3.4375 15 3.4375ZM7.8125 8.75C7.8125 4.78045 11.0305 1.5625 15 1.5625C18.9695 1.5625 22.1875 4.78045 22.1875 8.75C22.1875 12.7195 18.9695 15.9375 15 15.9375C11.0305 15.9375 7.8125 12.7195 7.8125 8.75Z" fill="#3755F1"/>
<path fill-rule="evenodd" clip-rule="evenodd" d="M10.3373 17.8125C10.3529 17.8125 10.3687 17.8125 10.3848 17.8125L19.6625 17.8125C20.0132 17.8125 20.2543 17.8124 20.4819 17.8346C22.0233 17.9848 23.391 18.8867 24.1362 20.2443C24.2463 20.4447 24.3412 20.6663 24.4793 20.9887L24.498 21.0323C24.5127 21.0667 24.5272 21.1004 24.5415 21.1337C24.8301 21.8068 25.0234 22.2574 25.1158 22.6346C25.765 25.2846 24.0226 27.9269 21.3312 28.3741C20.948 28.4378 20.4578 28.4377 19.7253 28.4375C19.6891 28.4375 19.6524 28.4375 19.6151 28.4375H10.3848C10.3474 28.4375 10.3107 28.4375 10.2745 28.4375C9.54206 28.4377 9.05179 28.4378 8.66867 28.3741C5.9772 27.9269 4.23487 25.2846 4.88407 22.6346C4.97648 22.2574 5.1697 21.8068 5.45837 21.1336C5.47262 21.1004 5.4871 21.0666 5.50181 21.0323C5.50813 21.0176 5.51435 21.0031 5.52049 20.9887C5.65861 20.6663 5.75355 20.4447 5.8636 20.2443C6.60886 18.8867 7.97656 17.9848 9.51793 17.8346C9.74553 17.8124 9.98663 17.8125 10.3373 17.8125ZM10.3848 19.6875C9.96887 19.6875 9.82502 19.6886 9.69982 19.7008C8.77499 19.7909 7.95438 20.332 7.50722 21.1466C7.44669 21.2568 7.38904 21.3886 7.22521 21.7709C6.87767 22.5818 6.75548 22.8756 6.70522 23.0808C6.31569 24.6708 7.3611 26.2562 8.97597 26.5245C9.18438 26.5591 9.50251 26.5625 10.3848 26.5625H19.6151C20.4973 26.5625 20.8155 26.5591 21.0239 26.5245C22.6387 26.2562 23.6841 24.6708 23.2946 23.0808C23.2443 22.8756 23.1222 22.5818 22.7746 21.7709C22.6108 21.3886 22.5531 21.2568 22.4926 21.1466C22.0455 20.332 21.2248 19.7909 20.3 19.7008C20.1748 19.6886 20.031 19.6875 19.6151 19.6875H10.3848Z" fill="#3755F1"/>
</svg>
