<svg width="40" height="40" viewBox="0 0 40 40" fill="none" xmlns="http://www.w3.org/2000/svg">
<path d="M20 40C31.0457 40 40 31.0457 40 20C40 8.95431 31.0457 0 20 0C8.95431 0 0 8.95431 0 20C0 31.0457 8.95431 40 20 40Z" fill="#C9C9C9"/>
<path fill-rule="evenodd" clip-rule="evenodd" d="M9.0532 19.7891C14.8836 17.2489 18.7715 15.5742 20.7168 14.7651C26.271 12.4549 27.4251 12.0536 28.1773 12.0404C28.3428 12.0374 28.7127 12.0785 28.9523 12.2729C29.1547 12.4371 29.2103 12.6589 29.237 12.8145C29.2636 12.9702 29.2968 13.3248 29.2704 13.6018C28.9694 16.7643 27.6671 24.4388 27.0045 27.9808C26.7241 29.4796 26.1721 29.9821 25.6377 30.0313C24.4762 30.1382 23.5943 29.2637 22.4694 28.5263C20.7091 27.3725 19.7147 26.6542 18.0061 25.5282C16.0314 24.227 17.3115 23.5118 18.4368 22.3429C18.7313 22.0371 23.8487 17.3825 23.9477 16.9602C23.9601 16.9074 23.9716 16.7106 23.8547 16.6066C23.7377 16.5027 23.5651 16.5382 23.4406 16.5665C23.264 16.6066 20.452 18.4652 15.0044 22.1425C14.2063 22.6906 13.4833 22.9576 12.8355 22.9436C12.1214 22.9282 10.7478 22.5398 9.7266 22.2079C8.4741 21.8008 7.47864 21.5855 7.56532 20.8941C7.61047 20.5339 8.10643 20.1656 9.0532 19.7891Z" fill="white"/>
</svg>
