<svg width="40" height="40" viewBox="0 0 40 40" fill="none" xmlns="http://www.w3.org/2000/svg">
<circle cx="20" cy="20" r="20" fill="#3755F1"/>
<g clip-path="url(#clip0_481:3129)">
<path d="M16.5502 30.7497C25.6045 30.7497 30.5583 23.2465 30.5583 16.7416C30.5583 16.5307 30.5536 16.3151 30.5442 16.1041C31.5079 15.4072 32.3395 14.544 33 13.5551C32.1025 13.9544 31.1496 14.2151 30.1739 14.3285C31.2013 13.7127 31.9705 12.7452 32.3391 11.6055C31.3726 12.1783 30.3156 12.5824 29.2134 12.8004C28.4708 12.0113 27.489 11.4889 26.4197 11.3138C25.3504 11.1387 24.2532 11.3208 23.2977 11.8319C22.3423 12.3429 21.5818 13.1545 21.1338 14.1411C20.6859 15.1277 20.5754 16.2344 20.8195 17.2901C18.8625 17.1918 16.9479 16.6835 15.2 15.7979C13.452 14.9122 11.9097 13.6692 10.673 12.1493C10.0444 13.233 9.85206 14.5154 10.135 15.7358C10.418 16.9563 11.1551 18.0232 12.1964 18.7197C11.4146 18.6949 10.65 18.4844 9.96563 18.1057V18.1666C9.96492 19.3039 10.3581 20.4063 11.0783 21.2865C11.7985 22.1667 12.8013 22.7703 13.9162 22.9947C13.1921 23.1929 12.432 23.2218 11.6948 23.0791C12.0095 24.0572 12.6216 24.9126 13.4458 25.5261C14.27 26.1395 15.2651 26.4804 16.2923 26.501C14.5484 27.8709 12.3942 28.6139 10.1766 28.6104C9.78329 28.6098 9.3904 28.5857 9 28.5382C11.2529 29.9835 13.8735 30.7511 16.5502 30.7497Z" fill="white"/>
</g>
<defs>
<clipPath id="clip0_481:3129">
<rect width="24" height="24" fill="white" transform="translate(9 9)"/>
</clipPath>
</defs>
</svg>
