<svg width="40" height="40" viewBox="0 0 40 40" fill="none" xmlns="http://www.w3.org/2000/svg">
<circle cx="20" cy="20" r="20" fill="#C9C9C9"/>
<g clip-path="url(#clip0_66:471)">
<path d="M16.5502 30.75C25.6045 30.75 30.5583 23.2468 30.5583 16.7419C30.5583 16.531 30.5536 16.3154 30.5442 16.1044C31.5079 15.4075 32.3395 14.5443 33 13.5554C32.1025 13.9547 31.1496 14.2154 30.1739 14.3288C31.2013 13.713 31.9705 12.7455 32.3391 11.6058C31.3726 12.1786 30.3156 12.5827 29.2134 12.8007C28.4708 12.0116 27.489 11.4892 26.4197 11.3141C25.3504 11.139 24.2532 11.3211 23.2977 11.8322C22.3423 12.3432 21.5818 13.1548 21.1338 14.1414C20.6859 15.128 20.5754 16.2347 20.8195 17.2904C18.8625 17.1922 16.9479 16.6838 15.2 15.7982C13.452 14.9126 11.9097 13.6695 10.673 12.1496C10.0444 13.2333 9.85206 14.5157 10.135 15.7362C10.418 16.9566 11.1551 18.0235 12.1964 18.72C11.4146 18.6952 10.65 18.4847 9.96563 18.106V18.1669C9.96492 19.3042 10.3581 20.4066 11.0783 21.2868C11.7985 22.167 12.8013 22.7706 13.9162 22.995C13.1921 23.1932 12.432 23.2221 11.6948 23.0794C12.0095 24.0575 12.6216 24.913 13.4458 25.5264C14.27 26.1398 15.2651 26.4807 16.2923 26.5013C14.5484 27.8712 12.3942 28.6142 10.1766 28.6107C9.78329 28.6101 9.3904 28.586 9 28.5385C11.2529 29.9838 13.8735 30.7514 16.5502 30.75Z" fill="white"/>
</g>
<defs>
<clipPath id="clip0_66:471">
<rect width="24" height="24" fill="white" transform="translate(9 9)"/>
</clipPath>
</defs>
</svg>
